{"scene":0,"asset":{"generator":"ImageToStl.com","version":"2.0"},"scenes":[{"name":"Scene","nodes":[0]}],"nodes":[{"name":"Node0","children":[1]},{"name":"Node1","mesh":0}],"materials":[{"name":"Rock_7","pbrMetallicRoughness":{"baseColorFactor":[0.8,0.8,0.8,1.0],"metallicFactor":0.5,"roughnessFactor":0.75},"emissiveFactor":[0.0,0.0,0.0],"doubleSided":true}],"meshes":[{"name":"Mesh0","primitives":[{"indices":3,"material":0,"attributes":{"POSITION":0,"NORMAL":1,"TEXCOORD_0":2}}]}],"accessors":[{"bufferView":0,"componentType":5126,"count":443,"type":"VEC3","min":[-2.1568747,-3.1134708,-0.179205],"max":[1.8761463,2.8793013,2.5041735]},{"bufferView":1,"componentType":5126,"count":443,"type":"VEC3"},{"bufferView":2,"componentType":5126,"count":443,"type":"VEC2"},{"bufferView":3,"componentType":5123,"count":6480,"type":"SCALAR"}],"bufferViews":[{"target":34962,"buffer":0,"byteLength":5316,"byteOffset":0},{"target":34962,"buffer":0,"byteLength":5316,"byteOffset":5316},{"target":34962,"buffer":0,"byteLength":3544,"byteOffset":10632},{"target":34963,"buffer":0,"byteLength":12960,"byteOffset":14176}],"buffers":[{"byteLength":27136,"uri":"data:application/octet-stream;base64,"}]}