{"accessors" : [{"bufferView" : 0, "byteOffset" : 0, "componentType" : 5123, "count" : 1395, "type" : "SCALAR", "max" : [265], "min" : [0]}, {"bufferView" : 1, "byteOffset" : 0, "componentType" : 5126, "count" : 266, "type" : "VEC3", "max" : [0.28476354479789734, 0.3906993269920349, 15.816038131713867], "min" : [-0.4827284812927246, -0.26127761602401733, -0.015338362194597721], "name" : "POSITION"}, {"bufferView" : 1, "byteOffset" : 12, "componentType" : 5126, "count" : 266, "type" : "VEC2", "max" : [-0.36265137791633606, 2], "min" : [-1, -4.92041540145874], "name" : "TEXCOORD_0"}, {"bufferView" : 0, "byteOffset" : 2792, "componentType" : 5123, "count" : 14478, "type" : "SCALAR", "max" : [3198], "min" : [0]}, {"bufferView" : 2, "byteOffset" : 0, "componentType" : 5126, "count" : 3199, "type" : "VEC3", "max" : [2.894263982772827, 3.289583921432495, 15.28165054321289], "min" : [-3.9166066646575928, -3.3728585243225098, 3.348667860031128], "name" : "POSITION"}, {"bufferView" : 2, "byteOffset" : 12, "componentType" : 5126, "count" : 3199, "type" : "VEC2", "max" : [-0.36265137791633606, 1.2585269212722778], "min" : [-1, -9.127033233642578], "name" : "TEXCOORD_0"}, {"bufferView" : 0, "byteOffset" : 31748, "componentType" : 5123, "count" : 61644, "type" : "SCALAR", "max" : [15172], "min" : [0]}, {"bufferView" : 3, "byteOffset" : 0, "componentType" : 5126, "count" : 15173, "type" : "VEC3", "max" : [3.3965253829956055, 4.663980007171631, 15.270383834838867], "min" : [-4.836086750030518, -4.439654350280762, 3.229053258895874], "name" : "POSITION"}, {"bufferView" : 3, "byteOffset" : 12, "componentType" : 5126, "count" : 15173, "type" : "VEC2", "max" : [-0.36265137791633606, -0.7187345027923584], "min" : [-1, -12.335145950317383], "name" : "TEXCOORD_0"}, {"bufferView" : 0, "byteOffset" : 155036, "componentType" : 5123, "count" : 37077, "type" : "SCALAR", "max" : [11845], "min" : [0]}, {"bufferView" : 4, "byteOffset" : 0, "componentType" : 5126, "count" : 11846, "type" : "VEC3", "max" : [3.35309100151062, 4.6957902908325195, 15.243599891662598], "min" : [-4.948185920715332, -3.896421432495117, 2.6628804206848145], "name" : "POSITION"}, {"bufferView" : 4, "byteOffset" : 12, "componentType" : 5126, "count" : 11846, "type" : "VEC2", "max" : [-0.36265137791633606, -2.9431536197662354], "min" : [-1, -12.582262992858887], "name" : "TEXCOORD_0"}, {"bufferView" : 0, "byteOffset" : 229192, "componentType" : 5123, "count" : 75099, "type" : "SCALAR", "max" : [35046], "min" : [0]}, {"bufferView" : 5, "byteOffset" : 0, "componentType" : 5126, "count" : 35047, "type" : "VEC3", "max" : [4.455916881561279, 4.830317974090576, 15.648055076599121], "min" : [-4.942403316497803, -4.611930847167969, 7.132013320922852], "name" : "POSITION"}, {"bufferView" : 5, "byteOffset" : 12, "componentType" : 5126, "count" : 35047, "type" : "VEC2", "max" : [1, 1.1410000324249268], "min" : [-0.01690531149506569, -0.06770265102386475], "name" : "TEXCOORD_0"}, {"bufferView" : 0, "byteOffset" : 379392, "componentType" : 5123, "count" : 59391, "type" : "SCALAR", "max" : [27716], "min" : [0]}, {"bufferView" : 6, "byteOffset" : 0, "componentType" : 5126, "count" : 27717, "type" : "VEC3", "max" : [3.9849586486816406, 5.16441535949707, 12.337705612182617], "min" : [-5.684449195861816, -5.283531665802002, 2.5373549461364746], "name" : "POSITION"}, {"bufferView" : 6, "byteOffset" : 12, "componentType" : 5126, "count" : 27717, "type" : "VEC2", "max" : [1, 1.1410000324249268], "min" : [-0.01690521463751793, -0.06770265102386475], "name" : "TEXCOORD_0"}], "asset" : {"generator" : "Aspose.3D 25.2.0", "version" : "2.0"}, "buffers" : [{"uri" : "data:application/octet-stream;base64,", "byteLength" : 2363164}], "bufferViews" : [{"buffer" : 0, "byteOffset" : 0, "byteLength" : 498176, "target" : 34963}, {"buffer" : 0, "byteOffset" : 498180, "byteLength" : 5320, "byteStride" : 20, "target" : 34962}, {"buffer" : 0, "byteOffset" : 503504, "byteLength" : 63980, "byteStride" : 20, "target" : 34962}, {"buffer" : 0, "byteOffset" : 567488, "byteLength" : 303460, "byteStride" : 20, "target" : 34962}, {"buffer" : 0, "byteOffset" : 870952, "byteLength" : 236920, "byteStride" : 20, "target" : 34962}, {"buffer" : 0, "byteOffset" : 1107876, "byteLength" : 700940, "byteStride" : 20, "target" : 34962}, {"buffer" : 0, "byteOffset" : 1808820, "byteLength" : 554340, "byteStride" : 20, "target" : 34962}], "images" : [{"uri" : "bark_loo.jpg"}, {"uri" : "bark_loo.jpg"}, {"uri" : "blatt1.jpg"}], "materials" : [{"name" : "Rinde", "pbrMetallicRoughness" : {"baseColorFactor" : [1, 1, 1, 1], "baseColorTexture" : {"index" : 1, "texCoord" : 0}, "metallicFactor" : 1, "roughnessFactor" : 1}, "normalTexture" : {"index" : 0, "texCoord" : 0, "scale" : 1}, "emissiveFactor" : [0, 0, 0], "alphaMode" : "OPAQUE", "doubleSided" : false}, {"name" : "Rinde_Leaf", "pbrMetallicRoughness" : {"baseColorFactor" : [1, 1, 1, 1], "baseColorTexture" : {"index" : 2, "texCoord" : 0}, "metallicFactor" : 1, "roughnessFactor" : 1}, "emissiveFactor" : [0, 0, 0], "alphaMode" : "OPAQUE", "doubleSided" : false}], "meshes" : [{"primitives" : [{"attributes" : {"POSITION" : 1, "TEXCOORD_0" : 2}, "indices" : 0, "material" : 0, "mode" : 4}, {"attributes" : {"POSITION" : 4, "TEXCOORD_0" : 5}, "indices" : 3, "material" : 0, "mode" : 4}, {"attributes" : {"POSITION" : 7, "TEXCOORD_0" : 8}, "indices" : 6, "material" : 0, "mode" : 4}, {"attributes" : {"POSITION" : 10, "TEXCOORD_0" : 11}, "indices" : 9, "material" : 0, "mode" : 4}, {"attributes" : {"POSITION" : 13, "TEXCOORD_0" : 14}, "indices" : 12, "material" : 0, "mode" : 4}], "name" : "sub01"}, {"primitives" : [{"attributes" : {"POSITION" : 16, "TEXCOORD_0" : 17}, "indices" : 15, "material" : 1, "mode" : 4}], "name" : "sub02"}], "nodes" : [{"matrix" : [-1, 0, 0, 0, 0, 0, 1, 0, 0, 1, 0, 0, 0, 0, 0, 1], "mesh" : 0, "name" : "sub01"}, {"matrix" : [-1, 0, 0, 0, 0, 0, 1, 0, 0, 1, 0, 0, 0, 0, 0, 1], "mesh" : 1, "name" : "sub02"}], "samplers" : [{"magFilter" : 9729, "minFilter" : 9729, "wrapS" : 10497, "wrapT" : 10497}, {"magFilter" : 9729, "minFilter" : 9729, "wrapS" : 10497, "wrapT" : 10497}, {"magFilter" : 9729, "minFilter" : 9729, "wrapS" : 10497, "wrapT" : 10497}], "scene" : 0, "scenes" : [{"nodes" : [0, 1]}], "textures" : [{"sampler" : 0, "source" : 0, "name" : ""}, {"sampler" : 1, "source" : 1, "name" : ""}, {"sampler" : 2, "source" : 2, "name" : ""}]}