{"scene":0,"asset":{"generator":"ImageToStl.com","version":"2.0"},"scenes":[{"name":"Scene","nodes":[0]}],"nodes":[{"name":"Node0","children":[1,2]},{"name":"Node1","mesh":0},{"name":"Node2","mesh":1}],"materials":[{"name":"Ghost","pbrMetallicRoughness":{"baseColorFactor":[0.8,0.8,0.8,1.0],"metallicFactor":0.5,"roughnessFactor":0.75},"emissiveFactor":[0.0,0.0,0.0],"doubleSided":true},{"name":"Web","pbrMetallicRoughness":{"baseColorFactor":[0.8,0.8,0.8,1.0],"metallicFactor":0.5,"roughnessFactor":0.75},"emissiveFactor":[0.0,0.0,0.0],"doubleSided":true}],"meshes":[{"name":"Mesh0","primitives":[{"indices":3,"material":0,"attributes":{"POSITION":0,"NORMAL":1,"TEXCOORD_0":2}}]},{"name":"Mesh0","primitives":[{"indices":7,"material":1,"attributes":{"POSITION":4,"NORMAL":5,"TEXCOORD_0":6}}]}],"accessors":[{"bufferView":0,"componentType":5126,"count":4225,"type":"VEC3","min":[-0.69710696,-0.3715836,0.03338802],"max":[0.6907932,0.35323375,1.8836393]},{"bufferView":1,"componentType":5126,"count":4225,"type":"VEC3"},{"bufferView":2,"componentType":5126,"count":4225,"type":"VEC2"},{"bufferView":3,"componentType":5123,"count":73728,"type":"SCALAR"},{"bufferView":4,"componentType":5126,"count":181,"type":"VEC3","min":[-0.7126682,-0.37244365,0.56190217],"max":[0.7063757,0.3713328,1.89961]},{"bufferView":5,"componentType":5126,"count":181,"type":"VEC3"},{"bufferView":6,"componentType":5126,"count":181,"type":"VEC2"},{"bufferView":7,"componentType":5123,"count":2304,"type":"SCALAR"}],"bufferViews":[{"target":34962,"buffer":0,"byteLength":50700,"byteOffset":0},{"target":34962,"buffer":0,"byteLength":50700,"byteOffset":50700},{"target":34962,"buffer":0,"byteLength":33800,"byteOffset":101400},{"target":34963,"buffer":0,"byteLength":147456,"byteOffset":135200},{"target":34962,"buffer":0,"byteLength":2172,"byteOffset":282656},{"target":34962,"buffer":0,"byteLength":2172,"byteOffset":284828},{"target":34962,"buffer":0,"byteLength":1448,"byteOffset":287000},{"target":34963,"buffer":0,"byteLength":4608,"byteOffset":288448}],"buffers":[{"byteLength":293056,"uri":"data:application/octet-stream;base64,"}]}