{"scene":0,"asset":{"generator":"ImageToStl.com","version":"2.0"},"scenes":[{"name":"Scene","nodes":[0]}],"nodes":[{"name":"Node0","children":[1,2,3,4,5,6,7]},{"name":"Node1","mesh":0},{"name":"Node2","mesh":1},{"name":"Node3","mesh":2},{"name":"Node4","mesh":3},{"name":"Node5","mesh":4},{"name":"Node6","mesh":5},{"name":"Node7","mesh":6}],"materials":[{"name":"ShotgunMaterial","pbrMetallicRoughness":{"baseColorFactor":[0.8,0.8,0.8,1.0],"metallicFactor":0.5,"roughnessFactor":0.75},"emissiveFactor":[0.0,0.0,0.0],"doubleSided":true},{"name":"Material","pbrMetallicRoughness":{"baseColorFactor":[0.129886,0.129886,0.129886,1.0],"metallicFactor":0.5,"roughnessFactor":0.75},"emissiveFactor":[0.0,0.0,0.0],"doubleSided":true}],"meshes":[{"name":"Mesh0","primitives":[{"indices":3,"material":0,"attributes":{"POSITION":0,"NORMAL":1,"TEXCOORD_0":2}}]},{"name":"Mesh0","primitives":[{"indices":7,"material":0,"attributes":{"POSITION":4,"NORMAL":5,"TEXCOORD_0":6}}]},{"name":"Mesh0","primitives":[{"indices":11,"material":0,"attributes":{"POSITION":8,"NORMAL":9,"TEXCOORD_0":10}}]},{"name":"Mesh0","primitives":[{"indices":15,"material":0,"attributes":{"POSITION":12,"NORMAL":13,"TEXCOORD_0":14}}]},{"name":"Mesh0","primitives":[{"indices":19,"material":0,"attributes":{"POSITION":16,"NORMAL":17,"TEXCOORD_0":18}}]},{"name":"Mesh0","primitives":[{"indices":23,"material":0,"attributes":{"POSITION":20,"NORMAL":21,"TEXCOORD_0":22}}]},{"name":"Mesh0","primitives":[{"indices":27,"material":1,"attributes":{"POSITION":24,"NORMAL":25,"TEXCOORD_0":26}}]}],"accessors":[{"bufferView":0,"componentType":5126,"count":3187,"type":"VEC3","min":[-0.1522282,-0.01737394,0.14024615],"max":[0.00491468,0.017374,0.21542372]},{"bufferView":1,"componentType":5126,"count":3187,"type":"VEC3"},{"bufferView":2,"componentType":5126,"count":3187,"type":"VEC2"},{"bufferView":3,"componentType":5123,"count":29160,"type":"SCALAR"},{"bufferView":4,"componentType":5126,"count":1294,"type":"VEC3","min":[-0.44631103,-0.01656751,0.06527633],"max":[-0.14190179,0.016567621,0.21103118]},{"bufferView":5,"componentType":5126,"count":1294,"type":"VEC3"},{"bufferView":6,"componentType":5126,"count":1294,"type":"VEC2"},{"bufferView":7,"componentType":5123,"count":13608,"type":"SCALAR"},{"bufferView":8,"componentType":5126,"count":1268,"type":"VEC3","min":[0.0020398349,-0.013896981,0.15238976],"max":[0.4474419,0.0138970185,0.218482]},{"bufferView":9,"componentType":5126,"count":1268,"type":"VEC3"},{"bufferView":10,"componentType":5126,"count":1268,"type":"VEC2"},{"bufferView":11,"componentType":5123,"count":8910,"type":"SCALAR"},{"bufferView":12,"componentType":5126,"count":114,"type":"VEC3","min":[-0.0006731972,0.011704442,0.17066969],"max":[0.10571045,0.014783183,0.1916495]},{"bufferView":13,"componentType":5126,"count":114,"type":"VEC3"},{"bufferView":14,"componentType":5126,"count":114,"type":"VEC2"},{"bufferView":15,"componentType":5123,"count":792,"type":"SCALAR"},{"bufferView":16,"componentType":5126,"count":168,"type":"VEC3","min":[-0.13404357,-0.0035752777,0.14520821],"max":[-0.1081996,0.003347975,0.16516745]},{"bufferView":17,"componentType":5126,"count":168,"type":"VEC3"},{"bufferView":18,"componentType":5126,"count":168,"type":"VEC2"},{"bufferView":19,"componentType":5123,"count":1386,"type":"SCALAR"},{"bufferView":20,"componentType":5126,"count":3262,"type":"VEC3","min":[0.10095455,-0.019246297,0.15452653],"max":[0.236006,0.01924633,0.1907597]},{"bufferView":21,"componentType":5126,"count":3262,"type":"VEC3"},{"bufferView":22,"componentType":5126,"count":3262,"type":"VEC2"},{"bufferView":23,"componentType":5123,"count":23787,"type":"SCALAR"},{"bufferView":24,"componentType":5126,"count":44,"type":"VEC3","min":[-2.0137975,-1.4935789,0.0],"max":[2.0137975,1.4935789,2.0]},{"bufferView":25,"componentType":5126,"count":44,"type":"VEC3"},{"bufferView":26,"componentType":5126,"count":44,"type":"VEC2"},{"bufferView":27,"componentType":5123,"count":378,"type":"SCALAR"}],"bufferViews":[{"target":34962,"buffer":0,"byteLength":38244,"byteOffset":0},{"target":34962,"buffer":0,"byteLength":38244,"byteOffset":38244},{"target":34962,"buffer":0,"byteLength":25496,"byteOffset":76488},{"target":34963,"buffer":0,"byteLength":58320,"byteOffset":101984},{"target":34962,"buffer":0,"byteLength":15528,"byteOffset":160304},{"target":34962,"buffer":0,"byteLength":15528,"byteOffset":175832},{"target":34962,"buffer":0,"byteLength":10352,"byteOffset":191360},{"target":34963,"buffer":0,"byteLength":27216,"byteOffset":201712},{"target":34962,"buffer":0,"byteLength":15216,"byteOffset":228928},{"target":34962,"buffer":0,"byteLength":15216,"byteOffset":244144},{"target":34962,"buffer":0,"byteLength":10144,"byteOffset":259360},{"target":34963,"buffer":0,"byteLength":17820,"byteOffset":269504},{"target":34962,"buffer":0,"byteLength":1368,"byteOffset":287324},{"target":34962,"buffer":0,"byteLength":1368,"byteOffset":288692},{"target":34962,"buffer":0,"byteLength":912,"byteOffset":290060},{"target":34963,"buffer":0,"byteLength":1584,"byteOffset":290972},{"target":34962,"buffer":0,"byteLength":2016,"byteOffset":292556},{"target":34962,"buffer":0,"byteLength":2016,"byteOffset":294572},{"target":34962,"buffer":0,"byteLength":1344,"byteOffset":296588},{"target":34963,"buffer":0,"byteLength":2772,"byteOffset":297932},{"target":34962,"buffer":0,"byteLength":39144,"byteOffset":300704},{"target":34962,"buffer":0,"byteLength":39144,"byteOffset":339848},{"target":34962,"buffer":0,"byteLength":26096,"byteOffset":378992},{"target":34963,"buffer":0,"byteLength":47574,"byteOffset":405088},{"target":34962,"buffer":0,"byteLength":528,"byteOffset":452664},{"target":34962,"buffer":0,"byteLength":528,"byteOffset":453192},{"target":34962,"buffer":0,"byteLength":352,"byteOffset":453720},{"target":34963,"buffer":0,"byteLength":756,"byteOffset":454072}],"buffers":[{"byteLength":454828,"uri":"data:application/octet-stream;base64,"}]}